<svg class="typst-doc" viewBox="0 0 595.2755905511812 841.8897637795276" width="595.2755905511812pt" height="841.8897637795276pt" xmlns="http://www.w3.org/2000/svg" xmlns:xlink="http://www.w3.org/1999/xlink" xmlns:h5="http://www.w3.org/1999/xhtml">
    <path class="typst-shape" fill="#ffffff" fill-rule="nonzero" d="M 0 0v 841.8898 h 595.2756 v -841.8898 Z "/>
    <g>
        <g class="typst-group">
            <g>
                <g class="typst-text" transform="matrix(0.7071067811865476 -0.7071067811865475 -0.7071067811865475 -0.7071067811865476 94 734.5608814816212)">
                    <use xlink:href="#gC41AAF6114875D106975939CAA6AB76D" x="0" y="0" fill="#e0e0e099" fill-rule="nonzero"/>
                    <use xlink:href="#g56F00441DEAFED8809E216C693A7478C" x="161.48" y="0" fill="#e0e0e099" fill-rule="nonzero"/>
                    <use xlink:href="#g56BD206232D213AA8EF18CA30F2DFDB4" x="319" y="0" fill="#e0e0e099" fill-rule="nonzero"/>
                    <use xlink:href="#g13BDD273B47DC22841E945DA2FF6FA12" x="481.79999999999995" y="0" fill="#e0e0e099" fill-rule="nonzero"/>
                    <use xlink:href="#g1731138251E5A4E5F068702395EA7153" x="601.6999999999999" y="0" fill="#e0e0e099" fill-rule="nonzero"/>
                </g>
            </g>
        </g>
    </g>
    <defs id="glyph">
        <symbol id="gC41AAF6114875D106975939CAA6AB76D" overflow="visible">
            <path d="M 0 0m 40.7 0 c 8.799999 0 26.84 -0.44 35.639996 -0.44 c 19.36 0 41.14 4.84 56.76001 18.48 c 10.559998 9.240002 17.819992 27.500002 17.819992 49.940002 c 0 40.699997 -26.400002 74.13999 -80.52 74.13999 c -11.660004 0 -20.900002 -0.22000122 -29.7 -0.22000122 c -8.800001 0 -33.88 0.44000244 -33.88 0.44000244 c -2.2000003 -1.3199921 -2.2000003 -6.1600037 0 -7.4799957 c 12.1 -0.66000366 18.26 -1.5400085 18.26 -19.800003 v -88.22 c 0 -18.26 -6.16 -19.14 -18.26 -19.8 c -2.2000003 -1.3200002 -2.2000003 -6.16 0 -7.48 c 0 0 25.08 0.44 33.88 0.44 Z m 15.18 26.18 v 90.2 c 0 12.099998 5.7199974 16.500008 13.639996 16.500008 c 43.340004 0 48.18 -37.180008 48.18 -70.40001 c 0 -40.04 -23.979996 -53.68 -40.699997 -53.68 c -15.400002 0 -21.119999 2.6399994 -21.119999 17.380001 Z "/>
        </symbol>
        <symbol id="g56F00441DEAFED8809E216C693A7478C" overflow="visible">
            <path d="M 0 0m 79.64 143.88 c -8.800003 0 -64.02 -1.5400085 -72.82 -1.5400085 c -2.2000003 -1.3199921 -2.2000003 -6.1600037 0 -7.4799957 c 12.1 -0.66000366 18.26 -1.5400085 18.26 -19.800003 v -88.22 c 0 -18.26 -6.16 -19.14 -18.26 -19.8 c -2.2000003 -1.3200002 -2.2000003 -6.16 0 -7.48 c 8.799999 0.22 25.08 0.44 33.88 0.44 c 8.799999 0 24.639996 -0.22 33.44 -0.44 c 2.199997 1.3199999 2.199997 6.16 0 7.48 c -12.099998 0.65999985 -18.259998 1.54 -18.259998 19.8 v 35.42 c 17.380001 0 19.359997 -1.5399971 22.439999 -6.5999985 l 25.739998 -38.28 c 6.8199997 -9.9 15.840004 -19.58 29.040009 -19.58 c 8.799988 0 20.23999 0.6600001 22.439987 1.76 c 0.8800049 1.54 0.66000366 5.72 -0.22000122 7.48 c -9.899994 0 -14.959991 5.2799997 -21.119995 14.5199995 l -29.919998 46.200005 c 11.879997 4.8399963 29.039993 16.279999 29.039993 38.719994 c 0 8.800003 -3.2999878 22 -16.939995 30.14 c -8.139999 4.8400116 -20.239998 7.26001 -36.739998 7.26001 Z m 20.46 -41.140007 c 0 -27.059998 -16.279999 -31.239998 -34.760002 -31.239998 h -9.459995 v 43.78 c 0 14.960007 5.0599976 19.580002 16.719997 19.580002 c 12.760002 0 27.5 -5.279999 27.5 -32.120003 Z "/>
        </symbol>
        <symbol id="g56BD206232D213AA8EF18CA30F2DFDB4" overflow="visible">
            <path d="M 0 0m 36.3 17.38 l 11.66 30.58 c 1.1000023 2.8600006 2.420002 3.7400017 7.700001 3.7400017 h 41.8 l 12.32 -35.86 c 2.6399994 -7.92 -3.7399979 -8.14 -12.099998 -8.58 c -1.3199997 0 -2.8600006 -0.21999979 -4.1800003 -0.21999979 c -1.3199997 -1.3200002 -1.3199997 -6.16 0 -7.48 c 8.139999 0.22 29.04 0.44 37.619995 0.44 c 9.020004 0 21.340012 -0.22 29.480011 -0.44 c 1.3199921 1.3199999 1.3199921 6.16 0 7.48 c -8.580002 0.8800001 -15.840012 0.65999985 -19.800003 11.88 l -45.320007 125.84 c -3.2999954 -1.9799957 -16.499992 -9.679993 -24.199997 -9.679993 l -47.739998 -112.64 c -5.7199993 -13.64 -12.319999 -14.740001 -22 -15.400001 c -1.3199999 -1.3200002 -1.3199999 -6.16 0 -7.48 c 8.14 0.22 12.1 0.44 20.68 0.44 c 9.02 0 21.12 -0.22 29.26 -0.44 c 1.3199997 1.3199999 1.3199997 6.16 0 7.48 c -8.360001 0.65999985 -18.7 1.3199997 -15.18 10.339999 Z m 23.760002 44.879997 c -4.84 0 -6.380001 0.65999985 -5.5 2.8600044 l 19.359997 49.28 h 1.5400009 l 18.04 -52.140003 Z "/>
        </symbol>
        <symbol id="g13BDD273B47DC22841E945DA2FF6FA12" overflow="visible">
            <path d="M 0 0m 53.239998 26.84 v 38.94 h 17.82 c 15.18 0 19.36 -4.1800003 20.020004 -14.079998 c 1.3199997 -1.3199997 8.139999 -1.3199997 9.459999 0 c -0.44000244 7.700001 -0.44000244 14.299999 -0.44000244 19.359997 c 0 5.060005 0.22000122 12.540001 0.44000244 18.919998 c -1.3199997 1.3200073 -8.139999 1.3200073 -9.459999 0 c -0.66000366 -12.099998 -5.279999 -14.079994 -20.020004 -14.079994 h -17.82 v 45.979996 c 0 5.279999 3.7400017 10.780006 9.02 10.780006 h 19.8 c 16.5 0 22.220001 -9.460007 27.060005 -24.640007 c 2.6399994 -0.4399948 5.5 0 7.699997 1.1000061 c -0.66000366 9.68 -2.4199982 31.239998 -2.6399994 32.999992 c 0 0.44000244 -0.22000122 0.66000366 -0.87999725 0.66000366 c -3.7400055 -0.66000366 -5.5 -0.8800049 -10.780006 -0.8800049 h -65.34 c 0 0 -22.880001 0.22000122 -33.88 0.44000244 c -1.3199999 -1.3199921 -1.3199999 -6.1600037 0 -7.4799957 c 15.400001 -0.66000366 19.140001 -1.7599945 19.140001 -20.020004 v -88 c 0 -18.26 -6.16 -19.14 -18.26 -19.8 c -2.1999998 -1.3200002 -2.1999998 -6.16 0 -7.48 c 8.799999 0.22 25.08 0.44 33.88 0.44 c 8.799999 0 26.84 -0.22 35.639996 -0.44 c 2.2000046 1.3199999 2.2000046 6.16 0 7.48 c -12.099998 0.65999985 -20.46 1.54 -20.46 19.8 Z "/>
        </symbol>
        <symbol id="g1731138251E5A4E5F068702395EA7153" overflow="visible">
            <path d="M 0 0m 89.1 27.06 v 83.6 c 0 14.080002 2.2000046 22.220009 10.120003 22.220009 h 4.8399963 c 16.5 0 25.740005 -5.5000076 29.479996 -22.440002 c 2.4200134 0 6.600006 0.21999359 8.580002 1.0999985 c -1.5399933 10.119995 -2.6399994 21.560005 -2.8600006 31.46 c 0 0.22000122 -0.44000244 0.66000366 -0.6599884 0.66000366 c -7.480011 -0.66000366 -31.90001 -1.7600098 -49.280006 -1.7600098 h -31.02 c -16.939999 0 -42.9 1.1000061 -51.26 1.7600098 c -0.44000006 0 -0.8800001 -0.44000244 -0.8800001 -0.66000366 c -0.8800001 -9.899994 -3.08 -21.559998 -5.5 -32.120003 c 2.1999998 -0.87999725 5.94 -1.0999985 8.58 -1.0999985 c 4.4000006 17.599998 13.42 23.100006 27.94 23.100006 h 10.779999 c 8.139999 0 10.34 -8.140007 10.34 -21.560005 v -84.26 c 0 -18.259998 -3.7399979 -19.36 -21.34 -20.02 c -1.3199997 -1.3200002 -1.3199997 -6.16 0 -7.48 c 10.779999 0.22 22.220001 0.44 36.300003 0.44 c 14.519997 0 26.18 -0.22 37.18 -0.44 c 1.3199997 1.3199999 1.3199997 6.16 0 7.48 c -17.600006 0.65999985 -21.340004 1.7600002 -21.340004 20.02 Z "/>
        </symbol>
    </defs>
</svg>
